<?xml version="1.0" encoding="UTF-8"?>
<svg id="Capa_1" data-name="Capa 1" xmlns="http://www.w3.org/2000/svg" viewBox="0 0 1081.24 1081.24">
  <defs>
    <style>
      .cls-1 {
        fill: #fff;
      }

      .cls-2 {
        fill: #22535d;
      }
    </style>
  </defs>
  <rect class="cls-2" width="1081.24" height="1081.24"/>
  <path class="cls-1" d="M617.29,456.79l-2.95-2.07c-6.06-3.85-13.24-6.08-20.96-6.08-4.08,0-8.01.62-11.71,1.78-13.56,4.23-23.95,15.62-26.77,29.74-63.87-3.8-123.33-23.94-174.29-56.26-100.18-63.53-167.5-174.21-170.71-300.84,2.25,121.9,47.78,233.19,121.85,319.23,20.98,24.37,44.24,46.71,69.47,66.69,20.42,16.17,42.11,30.83,64.92,43.73-56.24,36.21-120.12,61.58-188.72,73.05,23.8,4.85,48.44,7.4,73.67,7.4,66.51,0,128.87-17.7,182.68-48.61,27.58-15.85,52.9-35.17,75.38-57.37l124.17,10.86-116.02-81.24Z"/>
  <path class="cls-1" d="M728.31,506.02c.6-.24,1.2-.49,1.8-.74,2.77-1.13,5.52-2.29,8.25-3.48.62-.27,1.25-.54,1.87-.82,6.49-2.89,12.87-5.98,19.14-9.25.57-.3,1.13-.59,1.69-.89,2.91-1.54,5.8-3.12,8.66-4.74.2-.11.41-.23.61-.34,3.18-1.81,6.33-3.68,9.45-5.6.22-.14.45-.28.67-.42,2.84-1.75,5.66-3.55,8.44-5.39.39-.26.78-.51,1.17-.77,6.03-4.01,11.92-8.2,17.68-12.57.28-.21.55-.42.83-.63,2.8-2.15,5.58-4.33,8.31-6.56.05-.04.11-.09.16-.13,5.74-4.69,11.32-9.56,16.74-14.61.17-.16.35-.32.52-.49,5.43-5.07,10.69-10.32,15.78-15.74.03-.03.05-.06.08-.08,7.72-8.23,15.03-16.84,21.91-25.8.04-.05.07-.09.11-.14,2.62-3.42,5.16-6.9,7.65-10.42,1.62-2.3,3.19-4.64,4.75-6.98.73-1.08,1.47-2.16,2.19-3.25,2-3.07,3.95-6.17,5.85-9.3.18-.29.36-.58.54-.88,2.07-3.43,4.08-6.89,6.04-10.39,1.22-2.18,2.48-4.34,3.65-6.56-24.54,23.14-51.73,43.48-81.09,60.51,0,0,0,0,0,0-2.64,1.53-5.3,3.03-7.97,4.5-.37.2-.73.41-1.1.62-2.45,1.34-4.92,2.65-7.39,3.95-.6.32-1.2.64-1.81.95-2.33,1.2-4.67,2.38-7.02,3.54-.77.38-1.54.77-2.31,1.15-2.23,1.09-4.47,2.15-6.73,3.2-.91.43-1.83.86-2.74,1.28-2.15.99-4.32,1.95-6.49,2.9-1.04.46-2.07.91-3.11,1.36-2.09.9-4.19,1.77-6.3,2.64-1.14.47-2.28.94-3.43,1.4-2.04.82-4.09,1.62-6.14,2.4-1.23.47-2.46.94-3.69,1.4-2,.75-4,1.47-6.01,2.19-1.31.47-2.63.93-3.94,1.39-1.96.68-3.93,1.34-5.9,1.99-1.39.46-2.78.91-4.18,1.36-1.92.61-3.85,1.22-5.78,1.8-1.46.44-2.93.88-4.39,1.31-1.9.55-3.8,1.1-5.71,1.63-1.52.42-3.04.83-4.57,1.24-1.88.5-3.75.99-5.64,1.46-1.58.4-3.17.78-4.75,1.16-1.85.44-3.7.88-5.56,1.3-1.64.37-3.29.72-4.94,1.08-1.82.39-3.64.78-5.47,1.14-1.71.34-3.42.66-5.14.98-1.79.34-3.59.68-5.39.99-1.76.31-3.53.59-5.3.88-1.77.29-3.54.58-5.31.85-1.83.27-3.67.52-5.51.77-1.73.24-3.45.48-5.19.7-1.04.13-2.09.24-3.14.36l63.79,44.66c.29-.1.58-.2.86-.3,3.34-1.22,6.66-2.49,9.95-3.8Z"/>
  <path class="cls-1" d="M158.49,767.75h-18.35l16.74-114.12c8.99-1.74,21.91-3.04,34.08-3.04,20.52,0,37.35,4.03,37.35,27.02,0,2.64-.23,5.52-.69,8.71-3.09,21.15-13.05,30.56-26.89,34.29l17.66,47.13h-21.4l-15.77-45.04c-5.3,0-11.39-.3-16-.6l-6.73,45.64ZM182.7,706.98c14.89,0,24.3-4.13,26.74-20.7.28-1.99.46-3.83.46-5.52,0-10.45-5.95-14.68-20.66-14.68-4.98,0-10.75.4-16,1.14l-5.72,39.02c4.98.7,10.06.74,15.17.74Z"/>
  <path class="cls-1" d="M280.97,676.72c22.96,0,30.07,10.6,30.07,28.17,0,4.58-.51,9.6-1.29,15.08-.32,2.14-.69,4.33-1.2,6.57-9.45,1.79-28.96,3.88-40.17,4.43l-14.29.7c-.14,1.49-.19,2.94-.19,4.23,0,13.53,7.19,16.82,18.58,16.82,10.75,0,20.8-1.14,29.19-2.29l-.6,14.08c-8.95,1.54-19.74,3.24-35.23,3.24-21.58,0-28.59-12.29-28.59-30.66,0-4.63.41-9.6,1.2-14.88,4.7-32.15,15.73-45.49,42.52-45.49ZM271.84,717.93c6-.3,15.36-1.14,21.07-1.99.32-1.15.6-2.99.79-4.13.32-2.29.5-4.38.5-6.32,0-9.45-4.19-14.53-15.31-14.53-16.97,0-21.03,11.79-23.38,27.82l16.32-.85Z"/>
  <path class="cls-1" d="M360.23,714.15c11.53,4.58,21.26,7.31,21.26,21.6,0,1.79-.14,3.73-.46,5.87-3,20.46-17.57,26.13-35.19,26.13-8.62,0-19.27-1.2-27.3-3.49l3.69-14.18c6.04,1.24,14.8,2.44,21.12,2.44s18.63.25,20.15-10.2c.14-.8.18-1.59.18-2.29,0-8.01-7.42-8.91-13.97-11.25-11.07-3.88-21.67-7.22-21.67-21.75,0-1.64.14-3.38.41-5.28,2.86-19.46,16.09-25.03,32.05-25.03,11.11,0,18.86,1.05,28.13,3.43l-3.69,13.88c-6.09-1.29-12.68-2.39-19.78-2.39-6.5,0-18.08,0-19.41,9.06-.09.6-.14,1.14-.14,1.69,0,7.81,8.71,9.41,14.61,11.75Z"/>
  <path class="cls-1" d="M407.86,799.25h-17.16l14.44-98.44c.88-5.82,1.84-10.9,3.09-16.28,9.82-5.57,22.27-7.76,32.79-7.76,21.91,0,32.24,7.37,32.24,29.67,0,4.63-.46,9.9-1.34,15.87-5.03,34.19-17.34,45.49-41.87,45.49-5.58,0-11.99-.95-17.2-2.44l-4.98,33.89ZM454.58,722.31c.69-4.83,1.29-9.5,1.29-13.69,0-10.05-3.41-17.32-16.97-17.32-5.16,0-11.35.99-15.13,2.99-.88,3.58-1.66,7.91-2.26,11.89l-6.5,44.49c3.73,1.49,9.04,2.49,13.19,2.49,21.45,0,23.75-12.99,26.38-30.86Z"/>
  <path class="cls-1" d="M486.3,722.21c4.89-33.15,16.19-45.49,42.52-45.49,21.49,0,30.48,8.56,30.48,29.42,0,4.73-.46,10.05-1.34,16.07-4.79,32.65-16.19,45.54-42.52,45.54-21.45,0-30.53-8.16-30.53-29.12,0-4.78.46-10.25,1.38-16.42ZM542.15,707.33c0-11.69-4.2-15.58-15.08-15.58-14.57,0-19.88,6.02-23.47,30.46-.92,6.32-1.43,11.4-1.43,15.48,0,11.69,4.24,15.03,15.03,15.03,14.57,0,20.11-7.02,23.57-30.51.88-5.97,1.38-10.9,1.38-14.88Z"/>
  <path class="cls-1" d="M638.38,767.75h-17.2l8.02-54.8c.46-3.08.74-5.82.74-8.16,0-8.31-3.64-11.94-16.51-11.94-5.16,0-11.34.99-15.12,2.99-.88,3.58-1.62,7.91-2.22,11.89l-8.81,60.02h-17.16l9.64-65.79c.88-5.82,1.84-10.9,3.09-16.28,9.87-4.92,22.23-7.76,37.49-7.76,22.04,0,27.39,8.81,27.39,21.45,0,3.58-.41,7.47-1.01,11.55l-8.35,56.83Z"/>
  <path class="cls-1" d="M698.41,714.15c11.53,4.58,21.26,7.31,21.26,21.6,0,1.79-.14,3.73-.46,5.87-3,20.46-17.57,26.13-35.19,26.13-8.62,0-19.27-1.2-27.3-3.49l3.69-14.18c6.04,1.24,14.8,2.44,21.12,2.44s18.63.25,20.15-10.2c.14-.8.18-1.59.18-2.29,0-8.01-7.42-8.91-13.97-11.25-11.07-3.88-21.67-7.22-21.67-21.75,0-1.64.14-3.38.41-5.28,2.86-19.46,16.09-25.03,32.05-25.03,11.11,0,18.86,1.05,28.13,3.43l-3.69,13.88c-6.09-1.29-12.68-2.39-19.78-2.39-6.5,0-18.08,0-19.41,9.06-.09.6-.14,1.14-.14,1.69,0,7.81,8.71,9.41,14.61,11.75Z"/>
  <path class="cls-1" d="M762.41,679.11l-13,88.64h-17.25l13-88.64h17.25ZM746.87,655.17c1.29-8.66,4.15-11.5,12.08-11.5,6.55,0,9.09,1.89,9.09,7.32,0,1.2-.14,2.59-.37,4.18-1.24,8.66-3.97,11.5-12.08,11.5-6.59,0-9.09-1.89-9.09-7.32,0-1.19.14-2.59.37-4.18Z"/>
  <path class="cls-1" d="M800.52,679.16c5.67-1.49,12.36-2.44,17.94-2.44,20.2,0,29.84,7.61,29.84,29.36,0,4.68-.46,10.05-1.34,16.13-5.12,34.74-17.85,45.54-44.27,45.54-10.51,0-22.32-2.19-30.48-7.76.32-5.38.78-10.45,1.66-16.28l14.71-100.03h17.16l-5.21,35.48ZM804.81,753.21c19.23,0,22.41-14.68,24.81-31.01.78-5.33,1.48-10.25,1.48-14.48,0-10-3.78-16.37-18.82-16.37-4.15,0-9.73.99-13.92,2.49l-6.5,44.49c-.6,3.98-1.11,8.31-1.25,11.89,3.14,1.99,9.04,2.99,14.2,2.99Z"/>
  <path class="cls-1" d="M892.15,640.94l-14.53,99.09c-.32,2.29-.51,4.38-.51,6.37,0,4.98,1.11,9.16,3.46,13.54l-16.09,7.81c-3.18-4.82-4.94-10.4-4.94-17.87,0-2.73.28-5.72.74-9.01l14.66-99.93h17.2Z"/>
  <path class="cls-1" d="M942.57,676.72c22.96,0,30.07,10.6,30.07,28.17,0,4.58-.51,9.6-1.29,15.08-.32,2.14-.69,4.33-1.2,6.57-9.45,1.79-28.96,3.88-40.17,4.43l-14.29.7c-.14,1.49-.19,2.94-.19,4.23,0,13.53,7.19,16.82,18.58,16.82,10.75,0,20.8-1.14,29.19-2.29l-.6,14.08c-8.95,1.54-19.74,3.24-35.23,3.24-21.58,0-28.59-12.29-28.59-30.66,0-4.63.41-9.6,1.2-14.88,4.7-32.15,15.73-45.49,42.52-45.49ZM933.44,717.93c6-.3,15.36-1.14,21.07-1.99.32-1.15.6-2.99.79-4.13.32-2.29.5-4.38.5-6.32,0-9.45-4.19-14.53-15.31-14.53-16.97,0-21.03,11.79-23.38,27.82l16.32-.85Z"/>
  <path class="cls-1" d="M140.13,808.23l2.43-16.22h74.4l-2.43,16.22h-27.71l-15.16,100.81h-19.08l15.16-100.81h-27.61Z"/>
  <path class="cls-1" d="M204.93,909.04l9.97-66.4c.91-5.88,1.91-11,3.2-16.43,10.16-5.62,22.99-7.84,33.91-7.84,2.72,0,5.29.1,7.68.35l-3.67,15.17c-1.81-.25-3.96-.35-6.29-.35-5.34,0-11.78,1-15.64,3.01-.95,3.62-1.72,7.99-2.34,12.01l-9.11,60.48h-17.7Z"/>
  <path class="cls-1" d="M330.25,884.77c-.86,5.88-1.91,11-3.2,16.43-10.16,5.62-22.84,7.84-38.39,7.84-19.55,0-27.71-7.13-27.71-21.05,0-2.11.19-4.42.57-6.83,2.33-15.62,10.11-25.42,26.56-28.03,9.4-1.51,19.55-1.91,29.9-2.36.29-1.86.43-3.57.43-5.17,0-8.94-4.58-13.46-15.35-13.46-9.97,0-20.61,1.11-29.24,2.26l.62-13.96c9.2-1.61,20.36-3.27,32.53-3.27,16.5,0,29.71,4.37,29.71,21.8,0,1.96-.19,4.07-.52,6.38l-5.92,39.43ZM279.08,880.86c-.19,1.36-.29,2.56-.29,3.67,0,8.14,5.29,10.25,14.64,10.25,5.44,0,12.26-.46,17.89-3.06.91-3.62,1.72-7.99,2.33-12.01l2.48-16.48c-7.39.3-15.98.45-22.99,2.16-8.97,2.16-12.49,5.02-14.07,15.47Z"/>
  <path class="cls-1" d="M382.89,889.75l32.71-71.38h18.03l-37.87,78.36c-4.1,8.49-9.4,12.31-16.21,12.31s-10.92-3.82-12.45-12.31l-14.21-78.36h18.79l11.21,71.38Z"/>
  <path class="cls-1" d="M480.8,817.16c23.75,0,31.1,10.7,31.1,28.43,0,4.62-.52,9.69-1.34,15.22-.34,2.16-.72,4.37-1.24,6.63-9.77,1.81-29.95,3.92-41.54,4.47l-14.78.7c-.14,1.51-.19,2.96-.19,4.27,0,13.66,7.44,16.98,19.22,16.98,11.11,0,21.51-1.15,30.19-2.31l-.62,14.21c-9.25,1.56-20.41,3.27-36.44,3.27-22.32,0-29.57-12.41-29.57-30.94,0-4.67.43-9.69,1.24-15.02,4.87-32.45,16.26-45.91,43.97-45.91ZM471.35,858.76c6.2-.3,15.88-1.15,21.79-2.01.34-1.16.62-3.02.81-4.17.34-2.31.52-4.42.52-6.38,0-9.54-4.34-14.67-15.83-14.67-17.55,0-21.75,11.9-24.18,28.08l16.88-.85Z"/>
  <path class="cls-1" d="M556.38,781.05l-15.02,100.01c-.33,2.31-.52,4.42-.52,6.43,0,5.02,1.15,9.24,3.58,13.66l-16.64,7.88c-3.29-4.87-5.11-10.5-5.11-18.03,0-2.76.29-5.78.76-9.09l15.16-100.86h17.79Z"/>
  <path class="cls-1" d="M561.94,889.1l.51-3.21h15.48l-.51,3.21h-5.76l-3.15,19.91h-3.97l3.15-19.91h-5.75Z"/>
  <path class="cls-1" d="M596.25,891.5h-.02l-6.76,12.75c-.59,1.12-1.43,1.66-2.45,1.66s-1.69-.54-1.93-1.66l-2.82-12.73h-.02l-3.49,17.48h-3.6l4.13-20.3c.39-1.95,1.27-2.82,3.01-2.82,1.14,0,2.12.74,2.51,2.44l2.95,12.8,7.06-12.74c.93-1.66,2.19-2.49,3.34-2.49,1.51,0,2.17.66,2.17,2.11,0,.23-.02.47-.05.73l-2.33,20.28h-3.77l2.06-17.51Z"/>
</svg>